<svg xmlns="http://www.w3.org/2000/svg" height="24px" viewBox="0 -960 960 960" width="24px" fill="#1f1f1f"><path d="M480-208q-145.85-99.54-213.92-200.42Q198-509.31 198-612.69q0-123.39 79.12-201.35Q356.23-892 480-892t202.88 77.96Q762-736.08 762-612.69q0 103.38-68.08 204.07Q625.85-307.92 480-208Zm.07-320.69q34.85 0 58.54-23.76 23.7-23.76 23.7-57.62 0-34.85-23.76-59.04-23.76-24.2-58.62-24.2-34.85 0-58.54 24.26-23.7 24.26-23.7 59.12 0 33.85 23.76 57.54 23.76 23.7 58.62 23.7ZM188-68v-85h584v85H188Z"/></svg>